<?xml version="1.0" encoding="UTF-8" standalone="no"?>
<svg
   width="2000"
   height="600"
   viewBox="0 0 2000 599.99999"
   fill="none"
   version="1.1"
   id="svg14"
   sodipodi:docname="logo.svg"
   inkscape:version="1.4 (e7c3feb100, 2024-10-09)"
   xmlns:inkscape="http://www.inkscape.org/namespaces/inkscape"
   xmlns:sodipodi="http://sodipodi.sourceforge.net/DTD/sodipodi-0.dtd"
   xmlns="http://www.w3.org/2000/svg"
   xmlns:svg="http://www.w3.org/2000/svg">
  <sodipodi:namedview
     id="namedview14"
     pagecolor="#ffffff"
     bordercolor="#000000"
     borderopacity="0.25"
     inkscape:showpageshadow="2"
     inkscape:pageopacity="0.0"
     inkscape:pagecheckerboard="true"
     inkscape:deskcolor="#d1d1d1"
     inkscape:zoom="0.15764251"
     inkscape:cx="612.14453"
     inkscape:cy="114.1824"
     inkscape:window-width="1366"
     inkscape:window-height="761"
     inkscape:window-x="26"
     inkscape:window-y="23"
     inkscape:window-maximized="0"
     inkscape:current-layer="svg14" />
  <g
     id="g1"
     transform="translate(124.17,67.185)">
    <path
       d="m 1749.1,64.76 -31.75,9.728 c -1.79,-9.984 -9.98,-25.6 -33.02,-25.6 -17.15,0 -28.42,11.008 -28.42,23.04 0,9.984 6.4,17.92 19.72,20.48 l 25.34,4.864 c 33.02,6.4 50.69,27.908 50.69,53.508 0,27.9 -23.3,56.06 -65.54,56.06 -48.13,0 -69.37,-30.98 -72.19,-56.83 l 32.77,-8.71 c 1.53,17.92 14.08,34.05 39.68,34.05 18.94,0 29.44,-9.47 29.44,-22.27 0,-10.5 -7.94,-18.69 -22.02,-21.5 l -25.34,-5.12 c -28.93,-5.89 -47.62,-24.58 -47.62,-51.972 0,-32.256 28.93,-56.832 63.23,-56.832 44.04,0 60.93,26.624 65.03,47.104 z"
       fill="#000"
       id="path1"
       style="fill:#000000" />
    <path
       d="m 1594.6,64.76 -31.75,9.728 c -1.79,-9.984 -9.98,-25.6 -33.02,-25.6 -17.15,0 -28.42,11.008 -28.42,23.04 0,9.984 6.4,17.92 19.72,20.48 l 25.34,4.864 c 33.02,6.4 50.69,27.908 50.69,53.508 0,27.9 -23.3,56.06 -65.54,56.06 -48.13,0 -69.37,-30.98 -72.19,-56.83 l 32.77,-8.71 c 1.53,17.92 14.08,34.05 39.68,34.05 18.94,0 29.44,-9.47 29.44,-22.27 0,-10.5 -7.94,-18.69 -22.02,-21.5 l -25.34,-5.12 c -28.93,-5.89 -47.62,-24.58 -47.62,-51.972 0,-32.256 28.93,-56.832 63.23,-56.832 44.04,0 60.93,26.624 65.03,47.104 z"
       id="path2"
       style="fill:#000000" />
    <path
       d="M 1437.15,203 H 1323.48 V 21.496 h 113.67 v 33.28 h -78.34 v 41.472 h 70.91 v 31.492 h -70.91 v 41.98 h 78.34 z"
       fill="#000"
       id="path3"
       style="fill:#000000" />
    <path
       d="M 1296.46,203 H 1180.23 V 21.496 h 35.33 V 169.21 h 80.9 z"
       fill="#000"
       id="path4"
       style="fill:#000000" />
    <path
       d="m 1030.31,170.23 h 28.16 c 29.7,0 54.53,-18.43 54.53,-57.854 0,-39.424 -24.58,-58.112 -54.27,-58.112 h -28.42 z M 1059.75,203 H 994.98 V 21.496 h 65.03 c 51.71,0 89.6,33.536 89.6,90.88 0,57.344 -38.15,90.624 -89.86,90.624 z"
       fill="#000"
       id="path5"
       style="fill:#000000" />
    <path
       d="M 953.61,203 H 916.49 L 834.06,74.232 V 203 H 798.73 V 21.496 h 44.04 L 918.29,141.56 V 21.496 h 35.32 z"
       fill="#000"
       id="path6"
       style="fill:#000000" />
    <path
       d="M 763.4,203 H 649.73 V 21.496 H 763.4 v 33.28 h -78.34 v 41.472 h 70.91 v 31.492 h -70.91 v 41.98 h 78.34 z"
       fill="#000"
       id="path7"
       style="fill:#000000" />
    <g
       clip-path="url(#clip0_95_280)"
       id="g8"
       fill="#000"
       transform="translate(-1080,-887)"
       style="fill:#000000">
      <path
         d="m 1485.43,938.43 c 68.4,0 105.82,27.87 105.82,69.49 0,41.62 -29.27,68.44 -100.62,68.44 -40.84,0 -89.88,-24.38 -139.19,-52.06 l -23.81,19.97 -0.45,0.38 c 55.7,31.6 115.89,62.39 171.05,62.39 58.46,0 131.87,-28.44 131.87,-101.1 0,-72.66 -77.37,-118.94 -140.36,-118.94 -148.39,0 -248.81,177.39 -327.39,177.39 -16.54,0 -47.89,-5.94 -47.89,-39.3 0,-33.36 25.43,-47.94 62.75,-47.94 19.14,0 42.49,8.89 68.54,22.01 l 24.37,-20.58 c -35.6,-18.74 -68.81,-32.66 -96.22,-32.66 -78.94,0 -93.9,54.4 -93.9,83.79 0,29.39 18.6,76.87 83,76.87 126.83,0 203.65,-168.16 322.43,-168.16 z"
         fill="#000"
         id="path8"
         style="fill:#000000" />
    </g>
    <path
       d="m 1298.72,431.75 20.57,-7.26 c 1.45,12.1 10.65,21.78 27.1,21.78 12.83,0 19.85,-7.26 19.85,-15.49 0,-7.26 -5.33,-12.82 -15.01,-15 l -19.84,-4.36 c -18.15,-3.87 -29.04,-16.21 -29.04,-32.67 0,-19.84 18.63,-36.78 41.38,-36.78 31.94,0 41.87,20.81 44.29,31.22 l -20.09,7.5 c -0.97,-6.05 -5.81,-19.36 -24.2,-19.36 -11.62,0 -19.36,7.5 -19.36,15.49 0,7.01 4.36,12.1 13.31,14.03 l 18.88,4.12 c 21.05,4.59 32.18,17.42 32.18,34.6 0,16.46 -13.79,36.06 -42.59,36.06 -31.94,0 -45.5,-20.57 -47.43,-33.88 z"
       fill="#000"
       id="path9"
       style="fill:#000000" />
    <path
       d="m 1189.3,431.75 20.57,-7.26 c 1.45,12.1 10.64,21.78 27.1,21.78 12.83,0 19.84,-7.26 19.84,-15.49 0,-7.26 -5.32,-12.82 -15,-15 l -19.84,-4.36 c -18.15,-3.87 -29.04,-16.21 -29.04,-32.67 0,-19.84 18.63,-36.78 41.38,-36.78 31.94,0 41.86,20.81 44.28,31.22 l -20.08,7.5 c -0.97,-6.05 -5.81,-19.36 -24.2,-19.36 -11.62,0 -19.36,7.5 -19.36,15.49 0,7.01 4.35,12.1 13.31,14.03 l 18.87,4.12 c 21.06,4.59 32.19,17.42 32.19,34.6 0,16.46 -13.79,36.06 -42.59,36.06 -31.95,0 -45.5,-20.57 -47.43,-33.88 z"
       fill="#000"
       id="path10"
       style="fill:#000000" />
    <path
       d="m 1083.79,391.82 h 63.64 c -0.48,-16.7 -11.37,-29.77 -31.94,-29.77 -19.12,0 -30.74,14.77 -31.7,29.77 z m 67.03,30.25 19.6,6.78 c -6.53,20.57 -25.17,36.78 -52.27,36.78 -31.22,0 -58.56,-22.75 -58.56,-62.19 0,-36.55 26.37,-61.47 55.66,-61.47 35.81,0 55.9,24.68 55.9,60.98 0,2.91 -0.24,5.81 -0.49,7.26 h -87.6 c 0.48,20.81 15.49,35.33 35.09,35.33 18.88,0 28.31,-10.4 32.67,-23.47 z"
       fill="#000"
       id="path11"
       style="fill:#000000" />
    <path
       d="m 990.77,363.02 c -18.39,0 -35.33,13.55 -35.33,40.66 0,26.62 16.69,40.9 35.57,40.9 21.78,0 29.77,-14.77 32.43,-23.96 l 20.08,8.71 c -5.56,16.7 -22.26,36.3 -52.51,36.3 -33.88,0 -58.81,-26.62 -58.81,-61.95 0,-36.3 25.41,-61.71 58.57,-61.71 30.97,0 46.95,19.36 51.79,37.02 l -20.57,8.72 c -2.91,-11.38 -11.38,-24.69 -31.22,-24.69 z"
       fill="#000"
       id="path12"
       style="fill:#000000" />
    <path
       d="m 863.62,363.02 c -18.39,0 -35.33,13.55 -35.33,40.66 0,26.62 16.69,40.9 35.57,40.9 21.78,0 29.77,-14.77 32.43,-23.96 l 20.08,8.71 c -5.56,16.7 -22.26,36.3 -52.51,36.3 -33.88,0 -58.81,-26.62 -58.81,-61.95 0,-36.3 25.41,-61.71 58.57,-61.71 30.97,0 46.95,19.36 51.79,37.02 l -20.57,8.72 c -2.91,-11.38 -11.38,-24.69 -31.22,-24.69 z"
       fill="#000"
       id="path13"
       style="fill:#000000" />
    <path
       d="M 769.6,462 750.97,414.08 H 674.98 L 656.83,462 h -25.41 l 68.25,-171.58 h 27.34 L 795.26,462 Z m -56.87,-146.89 -29.28,76.95 h 59.05 z"
       fill="#000"
       id="path14"
       style="fill:#000000" />
  </g>
  <defs
     id="defs14">
    <clipPath
       id="clip0_95_280">
      <rect
         width="550.10999"
         height="220.03"
         fill="#000000"
         transform="translate(1080,887)"
         id="rect14"
         x="0"
         y="0" />
    </clipPath>
  </defs>
</svg>
